<svg data-v-1084b650="" xmlns="http://www.w3.org/2000/svg" viewBox="0 0 300 300"><!----> <!----> <rect data-v-1084b650="" fill="#F3E6FC" x="0" y="0" width="300px" height="300px" class="logo-background-square"></rect> <!----> <linearGradient data-v-1084b650="" gradientTransform="rotate(25)" id="320a9cb0-71cf-c822-3838-8514a68bde42" x1="0%" y1="0%" x2="100%" y2="0%"><stop data-v-1084b650="" offset="0%" style="stop-color: rgb(141, 44, 227); stop-opacity: 1;"></stop> <stop data-v-1084b650="" offset="100%" style="stop-color: rgb(247, 198, 246); stop-opacity: 1;"></stop></linearGradient> <g data-v-1084b650="" id="3c19b8ab-3937-1083-2cdf-08aecc693702" fill="url(#320a9cb0-71cf-c822-3838-8514a68bde42)" stroke="none" transform="matrix(0.6999999999999997,0,0,0.6999999999999997,45.00165664255623,45.000005006790204)"><svg xmlns="http://www.w3.org/2000/svg" viewBox="0 0 96 96"><path d="M26.96 30.984c-4.544 0-8.956 3.624-13.116 10.772-3.544 6.084-2.88 7.86-2.712 8.152.224.388 1 .611 2.124.611 6.388 0 20.132-6.8 26.832-10.459-2.164-3.04-7.216-9.076-13.128-9.076zM26.684 45.8c-3.308 0-6-2.692-6-6s2.692-6 6-6 6 2.692 6 6-2.692 6-6 6zM49.172 58.548c-4.92 0-8.496.524-10.38 1.068 2.084 3.176 6.132 7.94 10.416 7.948 3.276 0 6.504-2.717 9.624-8.076-1.6-.44-4.969-.94-9.66-.94zM72.496 39.8a2 2 0 1 1-3.999.001 2 2 0 0 1 3.999-.001z"></path><path d="M28.684 39.8a2 2 0 1 1-3.999.001 2 2 0 0 1 3.999-.001zM70.221 30.984c-5.937 0-10.969 6.036-13.129 9.068 6.7 3.664 20.448 10.472 26.832 10.472 1.124 0 1.908-.228 2.124-.611.168-.292.832-2.06-2.712-8.152-4.16-7.149-8.572-10.777-13.115-10.777zm.275 14.816c-3.309 0-6-2.692-6-6s2.691-6 6-6 6 2.692 6 6-2.691 6-6 6z"></path><path d="M94.736 19.612c1.451-2.904 1.664-6.216.6-9.332-1.72-5.004-6.404-8.368-11.645-8.368a11.86 11.86 0 0 0-3.676.584c-3.16 1.024-5.695 3.36-7.048 6.356C65.695 4.62 57.416 2.4 48.855 2.4c-9.135 0-17.916 2.552-25.563 7.392-1.852-4.732-6.4-7.876-11.468-7.876-1.252 0-2.484.196-3.676.584A11.674 11.674 0 0 0 1.26 8.424C-.188 11.328-.404 14.64.668 17.752a12.437 12.437 0 0 0 7.404 7.584A44.645 44.645 0 0 0 1.76 48.244c0 25.271 21.128 45.844 47.092 45.844 25.969 0 47.097-20.572 47.097-45.844 0-8.26-2.257-16.276-6.552-23.332a11.658 11.658 0 0 0 5.339-5.3zM13.26 54.523c-3.388 0-4.916-1.424-5.596-2.615-1.476-2.568-.612-6.428 2.724-12.156 4.932-8.472 10.508-12.76 16.58-12.76 10.168 0 17.412 12.236 17.716 12.76a2.001 2.001 0 0 1-.732 2.74c-.868.484-21.136 12.031-30.692 12.031zM51.359 71.8v3.708c3-.752 5.885-3.008 8.604-6.252.708-.836 1.964-1.204 2.815-.492.849.717.953 1.853.248 2.696-4.159 4.96-8.812 7.345-13.819 7.345-8.396 0-14.504-7.164-14.756-7.469-.712-.844-.6-2.1.244-2.813.844-.711 2.1-.104 2.816.736.044.057 4.252 5.292 9.852 6.328V71.8c0-.144.052-.276.084-.411-7.72-1.369-13-11.205-13.24-11.656a2.01 2.01 0 0 1 .368-2.36c2.592-2.552 11.076-2.828 14.596-2.828 5.48 0 12.355.556 14.016 3.188.381.604.412 1.367.08 2-3.584 6.795-7.607 10.68-12 11.6.038.155.092.299.092.467zM89.52 51.908c-.684 1.188-2.215 2.611-5.592 2.611-9.56 0-29.824-11.543-30.68-12.032a1.994 1.994 0 0 1-.936-1.22 1.98 1.98 0 0 1 .203-1.52c.305-.524 7.553-12.76 17.721-12.76 6.068 0 11.64 4.292 16.576 12.76 3.316 5.725 4.184 9.589 2.708 12.161z"></path></svg></g></svg>